<svg version="1.1" viewBox="0 0 810 450" xml:space="preserve" xmlns="http://www.w3.org/2000/svg"><g transform="translate(-8.1496 -149.42)"><rect x="8.1496" y="149.42" width="810" height="450" rx="0" ry="0" fill="#fff"/><g fill="none" stroke="#000" stroke-linecap="round" stroke-linejoin="round" stroke-width="5"><path d="m290.4 196.47h87.693c4.807 0 8.6769 3.8699 8.6769 8.6769v304.34c0 4.807-3.8699 8.6769-8.6769 8.6769h-310.18c-4.807 0-8.6769-3.8699-8.6769-8.6769v-304.34c0-4.807 3.8699-8.6769 8.6769-8.6769h97.38"/><path d="m288.4 272.47h65.693c4.807 0 8.6769 3.8699 8.6769 8.6769v200.34c0 4.807-3.8699 8.6769-8.6769 8.6769h-262.18c-4.807 0-8.6769-3.8699-8.6769-8.6769v-200.34c0-4.807 3.8699-8.6769 8.6769-8.6769h73.38"/><path d="m262.4 366.47h65.693c4.807 0 8.6769 3.8699 8.6769 8.6769v78.344c0 4.807-3.8699 8.6769-8.6769 8.6769h-212.18c-4.807 0-8.6769-3.8699-8.6769-8.6769v-78.344c0-4.807 3.8699-8.6769 8.6769-8.6769h77.38"/></g><g fill="#404040" font-family="sans-serif" font-weight="bold"><g font-size="26.667px"><text x="185.82378" y="204.62863" style="line-height:1.25" xml:space="preserve"><tspan x="185.82378" y="204.62863">HTML</tspan></text><text x="185.82378" y="284.62863" style="line-height:1.25" xml:space="preserve"><tspan x="185.82378" y="284.62863">BODY</tspan></text><text x="199.82378" y="378.62863" style="line-height:1.25" xml:space="preserve"><tspan x="199.82378" y="378.62863">DIV</tspan></text></g><g font-size="21.333px"><text x="119.5585" y="236.66806" style="line-height:1.25" xml:space="preserve"><tspan x="119.5585" y="236.66806">font-size=10px</tspan></text><text x="119.8083" y="314.66806" style="line-height:1.25" xml:space="preserve"><tspan x="119.8083" y="314.66806">font-size=1.4em</tspan></text><text x="224.39021" y="344.66806" style="line-height:1.25" xml:space="preserve"><tspan x="224.39021" y="344.66806">=14px</tspan></text><text x="119.95583" y="408.66806" style="line-height:1.25" xml:space="preserve"><tspan x="119.95583" y="408.66806">font-size=1.2em</tspan></text></g></g><text x="224.72263" y="438.66806" fill="#000000" font-family="sans-serif" font-size="21.333px" font-weight="bold" style="line-height:1.25" xml:space="preserve"><tspan x="224.72263" y="438.66806">=16.8px</tspan></text><path d="m331.98 233.5-5.7285 8.1953c21.589 15.089 25.351 41.23 11.67 66.082l8.7598 4.8223c15.575-28.292 11.013-61.127-14.701-79.1z" color="#000000" fill="#f92772" stroke-miterlimit="5" style="-inkscape-stroke:none"/><path d="m333.98 335.5-5.7285 8.1953c21.589 15.089 25.351 41.23 11.67 66.082l8.7598 4.8223c15.575-28.292 11.013-61.127-14.701-79.1z" color="#000000" fill="#f92772" stroke-miterlimit="5" style="-inkscape-stroke:none"/><text x="148.51318" y="577.04596" fill="#404040" font-family="sans-serif" font-size="43.873px" font-weight="bold" style="line-height:1.25" xml:space="preserve"><tspan x="148.51318" y="577.04596" fill="#404040">%, em</tspan></text><g fill="none" stroke="#000" stroke-linecap="round" stroke-linejoin="round" stroke-width="5"><path d="m668.64 196.47h87.693c4.807 0 8.6769 3.8699 8.6769 8.6769v304.34c0 4.807-3.8699 8.6769-8.6769 8.6769h-310.18c-4.807 0-8.6769-3.8699-8.6769-8.6769v-304.34c0-4.807 3.8699-8.6769 8.6769-8.6769h97.38"/><path d="m666.64 272.47h65.693c4.807 0 8.6769 3.8699 8.6769 8.6769v200.34c0 4.807-3.8699 8.6769-8.6769 8.6769h-262.18c-4.807 0-8.6769-3.8699-8.6769-8.6769v-200.34c0-4.807 3.8699-8.6769 8.6769-8.6769h73.38"/><path d="m640.64 366.47h65.693c4.807 0 8.6769 3.8699 8.6769 8.6769v78.344c0 4.807-3.8699 8.6769-8.6769 8.6769h-212.18c-4.807 0-8.6769-3.8699-8.6769-8.6769v-78.344c0-4.807 3.8699-8.6769 8.6769-8.6769h77.38"/></g><g fill="#000000" font-family="sans-serif" font-weight="bold"><g font-size="26.667px"><text x="564.06464" y="204.62863" style="line-height:1.25" xml:space="preserve"><tspan x="564.06464" y="204.62863">HTML</tspan></text><text x="564.06464" y="284.62863" style="line-height:1.25" xml:space="preserve"><tspan x="564.06464" y="284.62863">BODY</tspan></text><text x="578.06464" y="378.62863" style="line-height:1.25" xml:space="preserve"><tspan x="578.06464" y="378.62863">DIV</tspan></text></g><g font-size="21.333px"><text x="497.79935" y="236.66806" style="line-height:1.25" xml:space="preserve"><tspan x="497.79935" y="236.66806">font-size=10px</tspan></text><text x="498.04916" y="314.66806" style="line-height:1.25" xml:space="preserve"><tspan x="498.04916" y="314.66806">font-size=1.4rem</tspan></text><text x="602.63104" y="344.66806" style="line-height:1.25" xml:space="preserve"><tspan x="602.63104" y="344.66806">=14px</tspan></text><text x="498.19669" y="408.66806" style="line-height:1.25" xml:space="preserve"><tspan x="498.19669" y="408.66806">font-size=1.2rem</tspan></text><text x="602.9635" y="438.66806" style="line-height:1.25" xml:space="preserve"><tspan x="602.9635" y="438.66806">=12px</tspan></text></g></g><path d="m710.22 233.5-5.7285 8.1953c21.589 15.089 25.351 41.23 11.67 66.082l8.7617 4.8223c15.575-28.292 11.011-61.127-14.703-79.1z" color="#000000" fill="#f92772" stroke-miterlimit="5" style="-inkscape-stroke:none"/><path d="m734.1 227.02-5.7754 8.1641c27.493 19.449 37.354 53.358 33.441 86.896s-21.841 66.016-48.391 81.461l5.0274 8.6445c30.063-17.489 49.067-52.689 53.297-88.945s-6.555-74.26-37.6-96.221z" color="#000000" fill="#28c6e4" stroke-miterlimit="5" style="-inkscape-stroke:none"/><text x="554.59595" y="577.04596" fill="#000000" font-family="sans-serif" font-size="43.873px" font-weight="bold" style="line-height:1.25" xml:space="preserve"><tspan x="554.59595" y="577.04596" fill="#000000">rem</tspan></text><g fill="#f92772" stroke-linecap="round" stroke-linejoin="round" stroke-miterlimit="5" stroke-width="10"><g stroke="#f92772"><path transform="rotate(-4.5617 2233.2 257.05)" d="m330.78 270.68 0.67871-8.8839 0.6787-8.8839 14.709 10.059-8.033 3.8542z"/><path transform="rotate(-4.5617 965.04 233.59)" d="m330.78 270.68 0.67871-8.8839 0.6787-8.8839 14.709 10.059-8.033 3.8542z"/><path transform="rotate(-4.5617 1175.3 -4501.2)" d="m330.78 270.68 0.67871-8.8839 0.6787-8.8839 14.709 10.059-8.033 3.8542z"/></g><path transform="rotate(20.419 140.29 1401.1)" d="m330.78 270.68 0.67871-8.8839 0.6787-8.8839 14.709 10.059-8.033 3.8542z" stroke="#28c6e4"/></g></g></svg>
