<svg enable-background="new 0 0 1155 1155" version="1.1" viewBox="0 0 300 300" xml:space="preserve" xmlns="http://www.w3.org/2000/svg">
<rect width="300" height="300" fill="#fff"/><g transform="matrix(.25974 0 0 .25974 18.182 18.182)" stroke-width="3.85"><g transform="matrix(.35 0 0 .35 280 0)"><g stroke-width="3.85">
<rect width="100" height="100" stroke-width="3.85"/>
</g></g><g transform="matrix(.35 0 0 .35 315 0)"><g stroke-width="3.85">
<rect width="100" height="100" stroke-width="3.85"/>
</g></g><g transform="matrix(.35 0 0 .35 350 0)"><g stroke-width="3.85">
<rect width="100" height="100" stroke-width="3.85"/>
</g></g><g transform="matrix(.35 0 0 .35 385 0)"><g stroke-width="3.85">
<rect width="100" height="100" stroke-width="3.85"/>
</g></g><g transform="matrix(.35 0 0 .35 455 0)"><g stroke-width="3.85">
<rect width="100" height="100" stroke-width="3.85"/>
</g></g><g transform="matrix(.35 0 0 .35 630 0)"><g stroke-width="3.85">
<rect width="100" height="100" stroke-width="3.85"/>
</g></g><g transform="matrix(.35 0 0 .35 280 35)"><g stroke-width="3.85">
<rect width="100" height="100" stroke-width="3.85"/>
</g></g><g transform="matrix(.35 0 0 .35 315 35)"><g stroke-width="3.85">
<rect width="100" height="100" stroke-width="3.85"/>
</g></g><g transform="matrix(.35 0 0 .35 350 35)"><g stroke-width="3.85">
<rect width="100" height="100" stroke-width="3.85"/>
</g></g><g transform="matrix(.35 0 0 .35 455 35)"><g stroke-width="3.85">
<rect width="100" height="100" stroke-width="3.85"/>
</g></g><g transform="matrix(.35 0 0 .35 490 35)"><g stroke-width="3.85">
<rect width="100" height="100" stroke-width="3.85"/>
</g></g><g transform="matrix(.35 0 0 .35 560 35)"><g stroke-width="3.85">
<rect width="100" height="100" stroke-width="3.85"/>
</g></g><g transform="matrix(.35 0 0 .35 630 35)"><g stroke-width="3.85">
<rect width="100" height="100" stroke-width="3.85"/>
</g></g><g transform="matrix(.35 0 0 .35 665 35)"><g stroke-width="3.85">
<rect width="100" height="100" stroke-width="3.85"/>
</g></g><g transform="matrix(.35 0 0 .35 280 70)"><g stroke-width="3.85">
<rect width="100" height="100" stroke-width="3.85"/>
</g></g><g transform="matrix(.35 0 0 .35 315 70)"><g stroke-width="3.85">
<rect width="100" height="100" stroke-width="3.85"/>
</g></g><g transform="matrix(.35 0 0 .35 420 70)"><g stroke-width="3.85">
<rect width="100" height="100" stroke-width="3.85"/>
</g></g><g transform="matrix(.35 0 0 .35 455 70)"><g stroke-width="3.85">
<rect width="100" height="100" stroke-width="3.85"/>
</g></g><g transform="matrix(.35 0 0 .35 525 70)"><g stroke-width="3.85">
<rect width="100" height="100" stroke-width="3.85"/>
</g></g><g transform="matrix(.35 0 0 .35 560 70)"><g stroke-width="3.85">
<rect width="100" height="100" stroke-width="3.85"/>
</g></g><g transform="matrix(.35 0 0 .35 455 105)"><g stroke-width="3.85">
<rect width="100" height="100" stroke-width="3.85"/>
</g></g><g transform="matrix(.35 0 0 .35 560 105)"><g stroke-width="3.85">
<rect width="100" height="100" stroke-width="3.85"/>
</g></g><g transform="matrix(.35 0 0 .35 595 105)"><g stroke-width="3.85">
<rect width="100" height="100" stroke-width="3.85"/>
</g></g><g transform="matrix(.35 0 0 .35 280 140)"><g stroke-width="3.85">
<rect width="100" height="100" stroke-width="3.85"/>
</g></g><g transform="matrix(.35 0 0 .35 315 140)"><g stroke-width="3.85">
<rect width="100" height="100" stroke-width="3.85"/>
</g></g><g transform="matrix(.35 0 0 .35 350 140)"><g stroke-width="3.85">
<rect width="100" height="100" stroke-width="3.85"/>
</g></g><g transform="matrix(.35 0 0 .35 385 140)"><g stroke-width="3.85">
<rect width="100" height="100" stroke-width="3.85"/>
</g></g><g transform="matrix(.35 0 0 .35 420 140)"><g stroke-width="3.85">
<rect width="100" height="100" stroke-width="3.85"/>
</g></g><g transform="matrix(.35 0 0 .35 560 140)"><g stroke-width="3.85">
<rect width="100" height="100" stroke-width="3.85"/>
</g></g><g transform="matrix(.35 0 0 .35 665 140)"><g stroke-width="3.85">
<rect width="100" height="100" stroke-width="3.85"/>
</g></g><g transform="matrix(.35 0 0 .35 315 175)"><g stroke-width="3.85">
<rect width="100" height="100" stroke-width="3.85"/>
</g></g><g transform="matrix(.35 0 0 .35 350 175)"><g stroke-width="3.85">
<rect width="100" height="100" stroke-width="3.85"/>
</g></g><g transform="matrix(.35 0 0 .35 385 175)"><g stroke-width="3.85">
<rect width="100" height="100" stroke-width="3.85"/>
</g></g><g transform="matrix(.35 0 0 .35 560 175)"><g stroke-width="3.85">
<rect width="100" height="100" stroke-width="3.85"/>
</g></g><g transform="matrix(.35 0 0 .35 630 175)"><g stroke-width="3.85">
<rect width="100" height="100" stroke-width="3.85"/>
</g></g><g transform="matrix(.35 0 0 .35 700 175)"><g stroke-width="3.85">
<rect width="100" height="100" stroke-width="3.85"/>
</g></g><g transform="matrix(.35 0 0 .35 280 210)"><g stroke-width="3.85">
<rect width="100" height="100" stroke-width="3.85"/>
</g></g><g transform="matrix(.35 0 0 .35 350 210)"><g stroke-width="3.85">
<rect width="100" height="100" stroke-width="3.85"/>
</g></g><g transform="matrix(.35 0 0 .35 420 210)"><g stroke-width="3.85">
<rect width="100" height="100" stroke-width="3.85"/>
</g></g><g transform="matrix(.35 0 0 .35 490 210)"><g stroke-width="3.85">
<rect width="100" height="100" stroke-width="3.85"/>
</g></g><g transform="matrix(.35 0 0 .35 560 210)"><g stroke-width="3.85">
<rect width="100" height="100" stroke-width="3.85"/>
</g></g><g transform="matrix(.35 0 0 .35 630 210)"><g stroke-width="3.85">
<rect width="100" height="100" stroke-width="3.85"/>
</g></g><g transform="matrix(.35 0 0 .35 700 210)"><g stroke-width="3.85">
<rect width="100" height="100" stroke-width="3.85"/>
</g></g><g transform="matrix(.35 0 0 .35 315 245)"><g stroke-width="3.85">
<rect width="100" height="100" stroke-width="3.85"/>
</g></g><g transform="matrix(.35 0 0 .35 385 245)"><g stroke-width="3.85">
<rect width="100" height="100" stroke-width="3.85"/>
</g></g><g transform="matrix(.35 0 0 .35 455 245)"><g stroke-width="3.85">
<rect width="100" height="100" stroke-width="3.85"/>
</g></g><g transform="matrix(.35 0 0 .35 490 245)"><g stroke-width="3.85">
<rect width="100" height="100" stroke-width="3.85"/>
</g></g><g transform="matrix(.35 0 0 .35 525 245)"><g stroke-width="3.85">
<rect width="100" height="100" stroke-width="3.85"/>
</g></g><g transform="matrix(.35 0 0 .35 560 245)"><g stroke-width="3.85">
<rect width="100" height="100" stroke-width="3.85"/>
</g></g><g transform="matrix(.35 0 0 .35 630 245)"><g stroke-width="3.85">
<rect width="100" height="100" stroke-width="3.85"/>
</g></g><g transform="matrix(.35 0 0 .35 665 245)"><g stroke-width="3.85">
<rect width="100" height="100" stroke-width="3.85"/>
</g></g><g transform="matrix(.35 0 0 .35 0 280)"><g stroke-width="3.85">
<rect width="100" height="100" stroke-width="3.85"/>
</g></g><g transform="matrix(.35 0 0 .35 105 280)"><g stroke-width="3.85">
<rect width="100" height="100" stroke-width="3.85"/>
</g></g><g transform="matrix(.35 0 0 .35 140 280)"><g stroke-width="3.85">
<rect width="100" height="100" stroke-width="3.85"/>
</g></g><g transform="matrix(.35 0 0 .35 175 280)"><g stroke-width="3.85">
<rect width="100" height="100" stroke-width="3.85"/>
</g></g><g transform="matrix(.35 0 0 .35 210 280)"><g stroke-width="3.85">
<rect width="100" height="100" stroke-width="3.85"/>
</g></g><g transform="matrix(.35 0 0 .35 245 280)"><g stroke-width="3.85">
<rect width="100" height="100" stroke-width="3.85"/>
</g></g><g transform="matrix(.35 0 0 .35 280 280)"><g stroke-width="3.85">
<rect width="100" height="100" stroke-width="3.85"/>
</g></g><g transform="matrix(.35 0 0 .35 315 280)"><g stroke-width="3.85">
<rect width="100" height="100" stroke-width="3.85"/>
</g></g><g transform="matrix(.35 0 0 .35 385 280)"><g stroke-width="3.85">
<rect width="100" height="100" stroke-width="3.85"/>
</g></g><g transform="matrix(.35 0 0 .35 420 280)"><g stroke-width="3.85">
<rect width="100" height="100" stroke-width="3.85"/>
</g></g><g transform="matrix(.35 0 0 .35 560 280)"><g stroke-width="3.85">
<rect width="100" height="100" stroke-width="3.85"/>
</g></g><g transform="matrix(.35 0 0 .35 595 280)"><g stroke-width="3.85">
<rect width="100" height="100" stroke-width="3.85"/>
</g></g><g transform="matrix(.35 0 0 .35 735 280)"><g stroke-width="3.85">
<rect width="100" height="100" stroke-width="3.85"/>
</g></g><g transform="matrix(.35 0 0 .35 840 280)"><g stroke-width="3.85">
<rect width="100" height="100" stroke-width="3.85"/>
</g></g><g transform="matrix(.35 0 0 .35 910 280)"><g stroke-width="3.85">
<rect width="100" height="100" stroke-width="3.85"/>
</g></g><g transform="matrix(.35 0 0 .35 945 280)"><g stroke-width="3.85">
<rect width="100" height="100" stroke-width="3.85"/>
</g></g><g transform="matrix(.35 0 0 .35 980 280)"><g stroke-width="3.85">
<rect width="100" height="100" stroke-width="3.85"/>
</g></g><g transform="matrix(.35 0 0 .35 35 315)"><g stroke-width="3.85">
<rect width="100" height="100" stroke-width="3.85"/>
</g></g><g transform="matrix(.35 0 0 .35 70 315)"><g stroke-width="3.85">
<rect width="100" height="100" stroke-width="3.85"/>
</g></g><g transform="matrix(.35 0 0 .35 140 315)"><g stroke-width="3.85">
<rect width="100" height="100" stroke-width="3.85"/>
</g></g><g transform="matrix(.35 0 0 .35 245 315)"><g stroke-width="3.85">
<rect width="100" height="100" stroke-width="3.85"/>
</g></g><g transform="matrix(.35 0 0 .35 280 315)"><g stroke-width="3.85">
<rect width="100" height="100" stroke-width="3.85"/>
</g></g><g transform="matrix(.35 0 0 .35 420 315)"><g stroke-width="3.85">
<rect width="100" height="100" stroke-width="3.85"/>
</g></g><g transform="matrix(.35 0 0 .35 455 315)"><g stroke-width="3.85">
<rect width="100" height="100" stroke-width="3.85"/>
</g></g><g transform="matrix(.35 0 0 .35 490 315)"><g stroke-width="3.85">
<rect width="100" height="100" stroke-width="3.85"/>
</g></g><g transform="matrix(.35 0 0 .35 525 315)"><g stroke-width="3.85">
<rect width="100" height="100" stroke-width="3.85"/>
</g></g><g transform="matrix(.35 0 0 .35 560 315)"><g stroke-width="3.85">
<rect width="100" height="100" stroke-width="3.85"/>
</g></g><g transform="matrix(.35 0 0 .35 630 315)"><g stroke-width="3.85">
<rect width="100" height="100" stroke-width="3.85"/>
</g></g><g transform="matrix(.35 0 0 .35 665 315)"><g stroke-width="3.85">
<rect width="100" height="100" stroke-width="3.85"/>
</g></g><g transform="matrix(.35 0 0 .35 700 315)"><g stroke-width="3.85">
<rect width="100" height="100" stroke-width="3.85"/>
</g></g><g transform="matrix(.35 0 0 .35 735 315)"><g stroke-width="3.85">
<rect width="100" height="100" stroke-width="3.85"/>
</g></g><g transform="matrix(.35 0 0 .35 805 315)"><g stroke-width="3.85">
<rect width="100" height="100" stroke-width="3.85"/>
</g></g><g transform="matrix(.35 0 0 .35 840 315)"><g stroke-width="3.85">
<rect width="100" height="100" stroke-width="3.85"/>
</g></g><g transform="matrix(.35 0 0 .35 910 315)"><g stroke-width="3.85">
<rect width="100" height="100" stroke-width="3.85"/>
</g></g><g transform="matrix(.35 0 0 .35 945 315)"><g stroke-width="3.85">
<rect width="100" height="100" stroke-width="3.85"/>
</g></g><g transform="matrix(.35 0 0 .35 35 350)"><g stroke-width="3.85">
<rect width="100" height="100" stroke-width="3.85"/>
</g></g><g transform="matrix(.35 0 0 .35 105 350)"><g stroke-width="3.85">
<rect width="100" height="100" stroke-width="3.85"/>
</g></g><g transform="matrix(.35 0 0 .35 175 350)"><g stroke-width="3.85">
<rect width="100" height="100" stroke-width="3.85"/>
</g></g><g transform="matrix(.35 0 0 .35 210 350)"><g stroke-width="3.85">
<rect width="100" height="100" stroke-width="3.85"/>
</g></g><g transform="matrix(.35 0 0 .35 245 350)"><g stroke-width="3.85">
<rect width="100" height="100" stroke-width="3.85"/>
</g></g><g transform="matrix(.35 0 0 .35 280 350)"><g stroke-width="3.85">
<rect width="100" height="100" stroke-width="3.85"/>
</g></g><g transform="matrix(.35 0 0 .35 315 350)"><g stroke-width="3.85">
<rect width="100" height="100" stroke-width="3.85"/>
</g></g><g transform="matrix(.35 0 0 .35 350 350)"><g stroke-width="3.85">
<rect width="100" height="100" stroke-width="3.85"/>
</g></g><g transform="matrix(.35 0 0 .35 385 350)"><g stroke-width="3.85">
<rect width="100" height="100" stroke-width="3.85"/>
</g></g><g transform="matrix(.35 0 0 .35 420 350)"><g stroke-width="3.85">
<rect width="100" height="100" stroke-width="3.85"/>
</g></g><g transform="matrix(.35 0 0 .35 455 350)"><g stroke-width="3.85">
<rect width="100" height="100" stroke-width="3.85"/>
</g></g><g transform="matrix(.35 0 0 .35 525 350)"><g stroke-width="3.85">
<rect width="100" height="100" stroke-width="3.85"/>
</g></g><g transform="matrix(.35 0 0 .35 560 350)"><g stroke-width="3.85">
<rect width="100" height="100" stroke-width="3.85"/>
</g></g><g transform="matrix(.35 0 0 .35 595 350)"><g stroke-width="3.85">
<rect width="100" height="100" stroke-width="3.85"/>
</g></g><g transform="matrix(.35 0 0 .35 700 350)"><g stroke-width="3.85">
<rect width="100" height="100" stroke-width="3.85"/>
</g></g><g transform="matrix(.35 0 0 .35 910 350)"><g stroke-width="3.85">
<rect width="100" height="100" stroke-width="3.85"/>
</g></g><g transform="matrix(.35 0 0 .35 0 385)"><g stroke-width="3.85">
<rect width="100" height="100" stroke-width="3.85"/>
</g></g><g transform="matrix(.35 0 0 .35 35 385)"><g stroke-width="3.85">
<rect width="100" height="100" stroke-width="3.85"/>
</g></g><g transform="matrix(.35 0 0 .35 245 385)"><g stroke-width="3.85">
<rect width="100" height="100" stroke-width="3.85"/>
</g></g><g transform="matrix(.35 0 0 .35 315 385)"><g stroke-width="3.85">
<rect width="100" height="100" stroke-width="3.85"/>
</g></g><g transform="matrix(.35 0 0 .35 350 385)"><g stroke-width="3.85">
<rect width="100" height="100" stroke-width="3.85"/>
</g></g><g transform="matrix(.35 0 0 .35 420 385)"><g stroke-width="3.85">
<rect width="100" height="100" stroke-width="3.85"/>
</g></g><g transform="matrix(.35 0 0 .35 490 385)"><g stroke-width="3.85">
<rect width="100" height="100" stroke-width="3.85"/>
</g></g><g transform="matrix(.35 0 0 .35 560 385)"><g stroke-width="3.85">
<rect width="100" height="100" stroke-width="3.85"/>
</g></g><g transform="matrix(.35 0 0 .35 595 385)"><g stroke-width="3.85">
<rect width="100" height="100" stroke-width="3.85"/>
</g></g><g transform="matrix(.35 0 0 .35 700 385)"><g stroke-width="3.85">
<rect width="100" height="100" stroke-width="3.85"/>
</g></g><g transform="matrix(.35 0 0 .35 770 385)"><g stroke-width="3.85">
<rect width="100" height="100" stroke-width="3.85"/>
</g></g><g transform="matrix(.35 0 0 .35 805 385)"><g stroke-width="3.85">
<rect width="100" height="100" stroke-width="3.85"/>
</g></g><g transform="matrix(.35 0 0 .35 840 385)"><g stroke-width="3.85">
<rect width="100" height="100" stroke-width="3.85"/>
</g></g><g transform="matrix(.35 0 0 .35 875 385)"><g stroke-width="3.85">
<rect width="100" height="100" stroke-width="3.85"/>
</g></g><g transform="matrix(.35 0 0 .35 980 385)"><g stroke-width="3.85">
<rect width="100" height="100" stroke-width="3.85"/>
</g></g><g transform="matrix(.35 0 0 .35 35 420)"><g stroke-width="3.85">
<rect width="100" height="100" stroke-width="3.85"/>
</g></g><g transform="matrix(.35 0 0 .35 105 420)"><g stroke-width="3.85">
<rect width="100" height="100" stroke-width="3.85"/>
</g></g><g transform="matrix(.35 0 0 .35 175 420)"><g stroke-width="3.85">
<rect width="100" height="100" stroke-width="3.85"/>
</g></g><g transform="matrix(.35 0 0 .35 210 420)"><g stroke-width="3.85">
<rect width="100" height="100" stroke-width="3.85"/>
</g></g><g transform="matrix(.35 0 0 .35 245 420)"><g stroke-width="3.85">
<rect width="100" height="100" stroke-width="3.85"/>
</g></g><g transform="matrix(.35 0 0 .35 315 420)"><g stroke-width="3.85">
<rect width="100" height="100" stroke-width="3.85"/>
</g></g><g transform="matrix(.35 0 0 .35 385 420)"><g stroke-width="3.85">
<rect width="100" height="100" stroke-width="3.85"/>
</g></g><g transform="matrix(.35 0 0 .35 455 420)"><g stroke-width="3.85">
<rect width="100" height="100" stroke-width="3.85"/>
</g></g><g transform="matrix(.35 0 0 .35 490 420)"><g stroke-width="3.85">
<rect width="100" height="100" stroke-width="3.85"/>
</g></g><g transform="matrix(.35 0 0 .35 665 420)"><g stroke-width="3.85">
<rect width="100" height="100" stroke-width="3.85"/>
</g></g><g transform="matrix(.35 0 0 .35 770 420)"><g stroke-width="3.85">
<rect width="100" height="100" stroke-width="3.85"/>
</g></g><g transform="matrix(.35 0 0 .35 980 420)"><g stroke-width="3.85">
<rect width="100" height="100" stroke-width="3.85"/>
</g></g><g transform="matrix(.35 0 0 .35 105 455)"><g stroke-width="3.85">
<rect width="100" height="100" stroke-width="3.85"/>
</g></g><g transform="matrix(.35 0 0 .35 280 455)"><g stroke-width="3.85">
<rect width="100" height="100" stroke-width="3.85"/>
</g></g><g transform="matrix(.35 0 0 .35 315 455)"><g stroke-width="3.85">
<rect width="100" height="100" stroke-width="3.85"/>
</g></g><g transform="matrix(.35 0 0 .35 490 455)"><g stroke-width="3.85">
<rect width="100" height="100" stroke-width="3.85"/>
</g></g><g transform="matrix(.35 0 0 .35 525 455)"><g stroke-width="3.85">
<rect width="100" height="100" stroke-width="3.85"/>
</g></g><g transform="matrix(.35 0 0 .35 560 455)"><g stroke-width="3.85">
<rect width="100" height="100" stroke-width="3.85"/>
</g></g><g transform="matrix(.35 0 0 .35 770 455)"><g stroke-width="3.85">
<rect width="100" height="100" stroke-width="3.85"/>
</g></g><g transform="matrix(.35 0 0 .35 805 455)"><g stroke-width="3.85">
<rect width="100" height="100" stroke-width="3.85"/>
</g></g><g transform="matrix(.35 0 0 .35 840 455)"><g stroke-width="3.85">
<rect width="100" height="100" stroke-width="3.85"/>
</g></g><g transform="matrix(.35 0 0 .35 875 455)"><g stroke-width="3.85">
<rect width="100" height="100" stroke-width="3.85"/>
</g></g><g transform="matrix(.35 0 0 .35 910 455)"><g stroke-width="3.85">
<rect width="100" height="100" stroke-width="3.85"/>
</g></g><g transform="matrix(.35 0 0 .35 945 455)"><g stroke-width="3.85">
<rect width="100" height="100" stroke-width="3.85"/>
</g></g><g transform="matrix(.35 0 0 .35 980 455)"><g stroke-width="3.85">
<rect width="100" height="100" stroke-width="3.85"/>
</g></g><g transform="matrix(.35 0 0 .35 35 490)"><g stroke-width="3.85">
<rect width="100" height="100" stroke-width="3.85"/>
</g></g><g transform="matrix(.35 0 0 .35 70 490)"><g stroke-width="3.85">
<rect width="100" height="100" stroke-width="3.85"/>
</g></g><g transform="matrix(.35 0 0 .35 105 490)"><g stroke-width="3.85">
<rect width="100" height="100" stroke-width="3.85"/>
</g></g><g transform="matrix(.35 0 0 .35 140 490)"><g stroke-width="3.85">
<rect width="100" height="100" stroke-width="3.85"/>
</g></g><g transform="matrix(.35 0 0 .35 210 490)"><g stroke-width="3.85">
<rect width="100" height="100" stroke-width="3.85"/>
</g></g><g transform="matrix(.35 0 0 .35 280 490)"><g stroke-width="3.85">
<rect width="100" height="100" stroke-width="3.85"/>
</g></g><g transform="matrix(.35 0 0 .35 350 490)"><g stroke-width="3.85">
<rect width="100" height="100" stroke-width="3.85"/>
</g></g><g transform="matrix(.35 0 0 .35 490 490)"><g stroke-width="3.85">
<rect width="100" height="100" stroke-width="3.85"/>
</g></g><g transform="matrix(.35 0 0 .35 525 490)"><g stroke-width="3.85">
<rect width="100" height="100" stroke-width="3.85"/>
</g></g><g transform="matrix(.35 0 0 .35 560 490)"><g stroke-width="3.85">
<rect width="100" height="100" stroke-width="3.85"/>
</g></g><g transform="matrix(.35 0 0 .35 595 490)"><g stroke-width="3.85">
<rect width="100" height="100" stroke-width="3.85"/>
</g></g><g transform="matrix(.35 0 0 .35 630 490)"><g stroke-width="3.85">
<rect width="100" height="100" stroke-width="3.85"/>
</g></g><g transform="matrix(.35 0 0 .35 665 490)"><g stroke-width="3.85">
<rect width="100" height="100" stroke-width="3.85"/>
</g></g><g transform="matrix(.35 0 0 .35 735 490)"><g stroke-width="3.85">
<rect width="100" height="100" stroke-width="3.85"/>
</g></g><g transform="matrix(.35 0 0 .35 805 490)"><g stroke-width="3.85">
<rect width="100" height="100" stroke-width="3.85"/>
</g></g><g transform="matrix(.35 0 0 .35 840 490)"><g stroke-width="3.85">
<rect width="100" height="100" stroke-width="3.85"/>
</g></g><g transform="matrix(.35 0 0 .35 910 490)"><g stroke-width="3.85">
<rect width="100" height="100" stroke-width="3.85"/>
</g></g><g transform="matrix(.35 0 0 .35 980 490)"><g stroke-width="3.85">
<rect width="100" height="100" stroke-width="3.85"/>
</g></g><g transform="matrix(.35 0 0 .35 105 525)"><g stroke-width="3.85">
<rect width="100" height="100" stroke-width="3.85"/>
</g></g><g transform="matrix(.35 0 0 .35 175 525)"><g stroke-width="3.85">
<rect width="100" height="100" stroke-width="3.85"/>
</g></g><g transform="matrix(.35 0 0 .35 350 525)"><g stroke-width="3.85">
<rect width="100" height="100" stroke-width="3.85"/>
</g></g><g transform="matrix(.35 0 0 .35 385 525)"><g stroke-width="3.85">
<rect width="100" height="100" stroke-width="3.85"/>
</g></g><g transform="matrix(.35 0 0 .35 455 525)"><g stroke-width="3.85">
<rect width="100" height="100" stroke-width="3.85"/>
</g></g><g transform="matrix(.35 0 0 .35 490 525)"><g stroke-width="3.85">
<rect width="100" height="100" stroke-width="3.85"/>
</g></g><g transform="matrix(.35 0 0 .35 525 525)"><g stroke-width="3.85">
<rect width="100" height="100" stroke-width="3.85"/>
</g></g><g transform="matrix(.35 0 0 .35 665 525)"><g stroke-width="3.85">
<rect width="100" height="100" stroke-width="3.85"/>
</g></g><g transform="matrix(.35 0 0 .35 735 525)"><g stroke-width="3.85">
<rect width="100" height="100" stroke-width="3.85"/>
</g></g><g transform="matrix(.35 0 0 .35 770 525)"><g stroke-width="3.85">
<rect width="100" height="100" stroke-width="3.85"/>
</g></g><g transform="matrix(.35 0 0 .35 840 525)"><g stroke-width="3.85">
<rect width="100" height="100" stroke-width="3.85"/>
</g></g><g transform="matrix(.35 0 0 .35 910 525)"><g stroke-width="3.85">
<rect width="100" height="100" stroke-width="3.85"/>
</g></g><g transform="matrix(.35 0 0 .35 980 525)"><g stroke-width="3.85">
<rect width="100" height="100" stroke-width="3.85"/>
</g></g><g transform="matrix(.35 0 0 .35 35 560)"><g stroke-width="3.85">
<rect width="100" height="100" stroke-width="3.85"/>
</g></g><g transform="matrix(.35 0 0 .35 70 560)"><g stroke-width="3.85">
<rect width="100" height="100" stroke-width="3.85"/>
</g></g><g transform="matrix(.35 0 0 .35 105 560)"><g stroke-width="3.85">
<rect width="100" height="100" stroke-width="3.85"/>
</g></g><g transform="matrix(.35 0 0 .35 140 560)"><g stroke-width="3.85">
<rect width="100" height="100" stroke-width="3.85"/>
</g></g><g transform="matrix(.35 0 0 .35 175 560)"><g stroke-width="3.85">
<rect width="100" height="100" stroke-width="3.85"/>
</g></g><g transform="matrix(.35 0 0 .35 210 560)"><g stroke-width="3.85">
<rect width="100" height="100" stroke-width="3.85"/>
</g></g><g transform="matrix(.35 0 0 .35 245 560)"><g stroke-width="3.85">
<rect width="100" height="100" stroke-width="3.85"/>
</g></g><g transform="matrix(.35 0 0 .35 315 560)"><g stroke-width="3.85">
<rect width="100" height="100" stroke-width="3.85"/>
</g></g><g transform="matrix(.35 0 0 .35 385 560)"><g stroke-width="3.85">
<rect width="100" height="100" stroke-width="3.85"/>
</g></g><g transform="matrix(.35 0 0 .35 420 560)"><g stroke-width="3.85">
<rect width="100" height="100" stroke-width="3.85"/>
</g></g><g transform="matrix(.35 0 0 .35 525 560)"><g stroke-width="3.85">
<rect width="100" height="100" stroke-width="3.85"/>
</g></g><g transform="matrix(.35 0 0 .35 630 560)"><g stroke-width="3.85">
<rect width="100" height="100" stroke-width="3.85"/>
</g></g><g transform="matrix(.35 0 0 .35 665 560)"><g stroke-width="3.85">
<rect width="100" height="100" stroke-width="3.85"/>
</g></g><g transform="matrix(.35 0 0 .35 700 560)"><g stroke-width="3.85">
<rect width="100" height="100" stroke-width="3.85"/>
</g></g><g transform="matrix(.35 0 0 .35 805 560)"><g stroke-width="3.85">
<rect width="100" height="100" stroke-width="3.85"/>
</g></g><g transform="matrix(.35 0 0 .35 875 560)"><g stroke-width="3.85">
<rect width="100" height="100" stroke-width="3.85"/>
</g></g><g transform="matrix(.35 0 0 .35 0 595)"><g stroke-width="3.85">
<rect width="100" height="100" stroke-width="3.85"/>
</g></g><g transform="matrix(.35 0 0 .35 35 595)"><g stroke-width="3.85">
<rect width="100" height="100" stroke-width="3.85"/>
</g></g><g transform="matrix(.35 0 0 .35 175 595)"><g stroke-width="3.85">
<rect width="100" height="100" stroke-width="3.85"/>
</g></g><g transform="matrix(.35 0 0 .35 280 595)"><g stroke-width="3.85">
<rect width="100" height="100" stroke-width="3.85"/>
</g></g><g transform="matrix(.35 0 0 .35 315 595)"><g stroke-width="3.85">
<rect width="100" height="100" stroke-width="3.85"/>
</g></g><g transform="matrix(.35 0 0 .35 350 595)"><g stroke-width="3.85">
<rect width="100" height="100" stroke-width="3.85"/>
</g></g><g transform="matrix(.35 0 0 .35 385 595)"><g stroke-width="3.85">
<rect width="100" height="100" stroke-width="3.85"/>
</g></g><g transform="matrix(.35 0 0 .35 420 595)"><g stroke-width="3.85">
<rect width="100" height="100" stroke-width="3.85"/>
</g></g><g transform="matrix(.35 0 0 .35 525 595)"><g stroke-width="3.85">
<rect width="100" height="100" stroke-width="3.85"/>
</g></g><g transform="matrix(.35 0 0 .35 630 595)"><g stroke-width="3.85">
<rect width="100" height="100" stroke-width="3.85"/>
</g></g><g transform="matrix(.35 0 0 .35 665 595)"><g stroke-width="3.85">
<rect width="100" height="100" stroke-width="3.85"/>
</g></g><g transform="matrix(.35 0 0 .35 700 595)"><g stroke-width="3.85">
<rect width="100" height="100" stroke-width="3.85"/>
</g></g><g transform="matrix(.35 0 0 .35 840 595)"><g stroke-width="3.85">
<rect width="100" height="100" stroke-width="3.85"/>
</g></g><g transform="matrix(.35 0 0 .35 910 595)"><g stroke-width="3.85">
<rect width="100" height="100" stroke-width="3.85"/>
</g></g><g transform="matrix(.35 0 0 .35 945 595)"><g stroke-width="3.85">
<rect width="100" height="100" stroke-width="3.85"/>
</g></g><g transform="matrix(.35 0 0 .35 0 630)"><g stroke-width="3.85">
<rect width="100" height="100" stroke-width="3.85"/>
</g></g><g transform="matrix(.35 0 0 .35 35 630)"><g stroke-width="3.85">
<rect width="100" height="100" stroke-width="3.85"/>
</g></g><g transform="matrix(.35 0 0 .35 140 630)"><g stroke-width="3.85">
<rect width="100" height="100" stroke-width="3.85"/>
</g></g><g transform="matrix(.35 0 0 .35 175 630)"><g stroke-width="3.85">
<rect width="100" height="100" stroke-width="3.85"/>
</g></g><g transform="matrix(.35 0 0 .35 210 630)"><g stroke-width="3.85">
<rect width="100" height="100" stroke-width="3.85"/>
</g></g><g transform="matrix(.35 0 0 .35 350 630)"><g stroke-width="3.85">
<rect width="100" height="100" stroke-width="3.85"/>
</g></g><g transform="matrix(.35 0 0 .35 455 630)"><g stroke-width="3.85">
<rect width="100" height="100" stroke-width="3.85"/>
</g></g><g transform="matrix(.35 0 0 .35 490 630)"><g stroke-width="3.85">
<rect width="100" height="100" stroke-width="3.85"/>
</g></g><g transform="matrix(.35 0 0 .35 525 630)"><g stroke-width="3.85">
<rect width="100" height="100" stroke-width="3.85"/>
</g></g><g transform="matrix(.35 0 0 .35 665 630)"><g stroke-width="3.85">
<rect width="100" height="100" stroke-width="3.85"/>
</g></g><g transform="matrix(.35 0 0 .35 735 630)"><g stroke-width="3.85">
<rect width="100" height="100" stroke-width="3.85"/>
</g></g><g transform="matrix(.35 0 0 .35 770 630)"><g stroke-width="3.85">
<rect width="100" height="100" stroke-width="3.85"/>
</g></g><g transform="matrix(.35 0 0 .35 805 630)"><g stroke-width="3.85">
<rect width="100" height="100" stroke-width="3.85"/>
</g></g><g transform="matrix(.35 0 0 .35 840 630)"><g stroke-width="3.85">
<rect width="100" height="100" stroke-width="3.85"/>
</g></g><g transform="matrix(.35 0 0 .35 875 630)"><g stroke-width="3.85">
<rect width="100" height="100" stroke-width="3.85"/>
</g></g><g transform="matrix(.35 0 0 .35 980 630)"><g stroke-width="3.85">
<rect width="100" height="100" stroke-width="3.85"/>
</g></g><g transform="matrix(.35 0 0 .35 0 665)"><g stroke-width="3.85">
<rect width="100" height="100" stroke-width="3.85"/>
</g></g><g transform="matrix(.35 0 0 .35 35 665)"><g stroke-width="3.85">
<rect width="100" height="100" stroke-width="3.85"/>
</g></g><g transform="matrix(.35 0 0 .35 105 665)"><g stroke-width="3.85">
<rect width="100" height="100" stroke-width="3.85"/>
</g></g><g transform="matrix(.35 0 0 .35 140 665)"><g stroke-width="3.85">
<rect width="100" height="100" stroke-width="3.85"/>
</g></g><g transform="matrix(.35 0 0 .35 245 665)"><g stroke-width="3.85">
<rect width="100" height="100" stroke-width="3.85"/>
</g></g><g transform="matrix(.35 0 0 .35 315 665)"><g stroke-width="3.85">
<rect width="100" height="100" stroke-width="3.85"/>
</g></g><g transform="matrix(.35 0 0 .35 385 665)"><g stroke-width="3.85">
<rect width="100" height="100" stroke-width="3.85"/>
</g></g><g transform="matrix(.35 0 0 .35 455 665)"><g stroke-width="3.85">
<rect width="100" height="100" stroke-width="3.85"/>
</g></g><g transform="matrix(.35 0 0 .35 630 665)"><g stroke-width="3.85">
<rect width="100" height="100" stroke-width="3.85"/>
</g></g><g transform="matrix(.35 0 0 .35 735 665)"><g stroke-width="3.85">
<rect width="100" height="100" stroke-width="3.85"/>
</g></g><g transform="matrix(.35 0 0 .35 770 665)"><g stroke-width="3.85">
<rect width="100" height="100" stroke-width="3.85"/>
</g></g><g transform="matrix(.35 0 0 .35 805 665)"><g stroke-width="3.85">
<rect width="100" height="100" stroke-width="3.85"/>
</g></g><g transform="matrix(.35 0 0 .35 875 665)"><g stroke-width="3.85">
<rect width="100" height="100" stroke-width="3.85"/>
</g></g><g transform="matrix(.35 0 0 .35 910 665)"><g stroke-width="3.85">
<rect width="100" height="100" stroke-width="3.85"/>
</g></g><g transform="matrix(.35 0 0 .35 0 700)"><g stroke-width="3.85">
<rect width="100" height="100" stroke-width="3.85"/>
</g></g><g transform="matrix(.35 0 0 .35 35 700)"><g stroke-width="3.85">
<rect width="100" height="100" stroke-width="3.85"/>
</g></g><g transform="matrix(.35 0 0 .35 140 700)"><g stroke-width="3.85">
<rect width="100" height="100" stroke-width="3.85"/>
</g></g><g transform="matrix(.35 0 0 .35 210 700)"><g stroke-width="3.85">
<rect width="100" height="100" stroke-width="3.85"/>
</g></g><g transform="matrix(.35 0 0 .35 245 700)"><g stroke-width="3.85">
<rect width="100" height="100" stroke-width="3.85"/>
</g></g><g transform="matrix(.35 0 0 .35 280 700)"><g stroke-width="3.85">
<rect width="100" height="100" stroke-width="3.85"/>
</g></g><g transform="matrix(.35 0 0 .35 315 700)"><g stroke-width="3.85">
<rect width="100" height="100" stroke-width="3.85"/>
</g></g><g transform="matrix(.35 0 0 .35 350 700)"><g stroke-width="3.85">
<rect width="100" height="100" stroke-width="3.85"/>
</g></g><g transform="matrix(.35 0 0 .35 455 700)"><g stroke-width="3.85">
<rect width="100" height="100" stroke-width="3.85"/>
</g></g><g transform="matrix(.35 0 0 .35 560 700)"><g stroke-width="3.85">
<rect width="100" height="100" stroke-width="3.85"/>
</g></g><g transform="matrix(.35 0 0 .35 595 700)"><g stroke-width="3.85">
<rect width="100" height="100" stroke-width="3.85"/>
</g></g><g transform="matrix(.35 0 0 .35 700 700)"><g stroke-width="3.85">
<rect width="100" height="100" stroke-width="3.85"/>
</g></g><g transform="matrix(.35 0 0 .35 735 700)"><g stroke-width="3.85">
<rect width="100" height="100" stroke-width="3.85"/>
</g></g><g transform="matrix(.35 0 0 .35 770 700)"><g stroke-width="3.85">
<rect width="100" height="100" stroke-width="3.85"/>
</g></g><g transform="matrix(.35 0 0 .35 805 700)"><g stroke-width="3.85">
<rect width="100" height="100" stroke-width="3.85"/>
</g></g><g transform="matrix(.35 0 0 .35 840 700)"><g stroke-width="3.85">
<rect width="100" height="100" stroke-width="3.85"/>
</g></g><g transform="matrix(.35 0 0 .35 875 700)"><g stroke-width="3.85">
<rect width="100" height="100" stroke-width="3.85"/>
</g></g><g transform="matrix(.35 0 0 .35 910 700)"><g stroke-width="3.85">
<rect width="100" height="100" stroke-width="3.85"/>
</g></g><g transform="matrix(.35 0 0 .35 945 700)"><g stroke-width="3.85">
<rect width="100" height="100" stroke-width="3.85"/>
</g></g><g transform="matrix(.35 0 0 .35 280 735)"><g stroke-width="3.85">
<rect width="100" height="100" stroke-width="3.85"/>
</g></g><g transform="matrix(.35 0 0 .35 455 735)"><g stroke-width="3.85">
<rect width="100" height="100" stroke-width="3.85"/>
</g></g><g transform="matrix(.35 0 0 .35 525 735)"><g stroke-width="3.85">
<rect width="100" height="100" stroke-width="3.85"/>
</g></g><g transform="matrix(.35 0 0 .35 595 735)"><g stroke-width="3.85">
<rect width="100" height="100" stroke-width="3.85"/>
</g></g><g transform="matrix(.35 0 0 .35 630 735)"><g stroke-width="3.85">
<rect width="100" height="100" stroke-width="3.85"/>
</g></g><g transform="matrix(.35 0 0 .35 700 735)"><g stroke-width="3.85">
<rect width="100" height="100" stroke-width="3.85"/>
</g></g><g transform="matrix(.35 0 0 .35 840 735)"><g stroke-width="3.85">
<rect width="100" height="100" stroke-width="3.85"/>
</g></g><g transform="matrix(.35 0 0 .35 875 735)"><g stroke-width="3.85">
<rect width="100" height="100" stroke-width="3.85"/>
</g></g><g transform="matrix(.35 0 0 .35 280 770)"><g stroke-width="3.85">
<rect width="100" height="100" stroke-width="3.85"/>
</g></g><g transform="matrix(.35 0 0 .35 315 770)"><g stroke-width="3.85">
<rect width="100" height="100" stroke-width="3.85"/>
</g></g><g transform="matrix(.35 0 0 .35 350 770)"><g stroke-width="3.85">
<rect width="100" height="100" stroke-width="3.85"/>
</g></g><g transform="matrix(.35 0 0 .35 420 770)"><g stroke-width="3.85">
<rect width="100" height="100" stroke-width="3.85"/>
</g></g><g transform="matrix(.35 0 0 .35 455 770)"><g stroke-width="3.85">
<rect width="100" height="100" stroke-width="3.85"/>
</g></g><g transform="matrix(.35 0 0 .35 525 770)"><g stroke-width="3.85">
<rect width="100" height="100" stroke-width="3.85"/>
</g></g><g transform="matrix(.35 0 0 .35 665 770)"><g stroke-width="3.85">
<rect width="100" height="100" stroke-width="3.85"/>
</g></g><g transform="matrix(.35 0 0 .35 700 770)"><g stroke-width="3.85">
<rect width="100" height="100" stroke-width="3.85"/>
</g></g><g transform="matrix(.35 0 0 .35 770 770)"><g stroke-width="3.85">
<rect width="100" height="100" stroke-width="3.85"/>
</g></g><g transform="matrix(.35 0 0 .35 840 770)"><g stroke-width="3.85">
<rect width="100" height="100" stroke-width="3.85"/>
</g></g><g transform="matrix(.35 0 0 .35 875 770)"><g stroke-width="3.85">
<rect width="100" height="100" stroke-width="3.85"/>
</g></g><g transform="matrix(.35 0 0 .35 280 805)"><g stroke-width="3.85">
<rect width="100" height="100" stroke-width="3.85"/>
</g></g><g transform="matrix(.35 0 0 .35 385 805)"><g stroke-width="3.85">
<rect width="100" height="100" stroke-width="3.85"/>
</g></g><g transform="matrix(.35 0 0 .35 455 805)"><g stroke-width="3.85">
<rect width="100" height="100" stroke-width="3.85"/>
</g></g><g transform="matrix(.35 0 0 .35 595 805)"><g stroke-width="3.85">
<rect width="100" height="100" stroke-width="3.85"/>
</g></g><g transform="matrix(.35 0 0 .35 630 805)"><g stroke-width="3.85">
<rect width="100" height="100" stroke-width="3.85"/>
</g></g><g transform="matrix(.35 0 0 .35 665 805)"><g stroke-width="3.85">
<rect width="100" height="100" stroke-width="3.85"/>
</g></g><g transform="matrix(.35 0 0 .35 700 805)"><g stroke-width="3.85">
<rect width="100" height="100" stroke-width="3.85"/>
</g></g><g transform="matrix(.35 0 0 .35 840 805)"><g stroke-width="3.85">
<rect width="100" height="100" stroke-width="3.85"/>
</g></g><g transform="matrix(.35 0 0 .35 945 805)"><g stroke-width="3.85">
<rect width="100" height="100" stroke-width="3.85"/>
</g></g><g transform="matrix(.35 0 0 .35 280 840)"><g stroke-width="3.85">
<rect width="100" height="100" stroke-width="3.85"/>
</g></g><g transform="matrix(.35 0 0 .35 350 840)"><g stroke-width="3.85">
<rect width="100" height="100" stroke-width="3.85"/>
</g></g><g transform="matrix(.35 0 0 .35 420 840)"><g stroke-width="3.85">
<rect width="100" height="100" stroke-width="3.85"/>
</g></g><g transform="matrix(.35 0 0 .35 455 840)"><g stroke-width="3.85">
<rect width="100" height="100" stroke-width="3.85"/>
</g></g><g transform="matrix(.35 0 0 .35 560 840)"><g stroke-width="3.85">
<rect width="100" height="100" stroke-width="3.85"/>
</g></g><g transform="matrix(.35 0 0 .35 665 840)"><g stroke-width="3.85">
<rect width="100" height="100" stroke-width="3.85"/>
</g></g><g transform="matrix(.35 0 0 .35 700 840)"><g stroke-width="3.85">
<rect width="100" height="100" stroke-width="3.85"/>
</g></g><g transform="matrix(.35 0 0 .35 735 840)"><g stroke-width="3.85">
<rect width="100" height="100" stroke-width="3.85"/>
</g></g><g transform="matrix(.35 0 0 .35 770 840)"><g stroke-width="3.85">
<rect width="100" height="100" stroke-width="3.85"/>
</g></g><g transform="matrix(.35 0 0 .35 805 840)"><g stroke-width="3.85">
<rect width="100" height="100" stroke-width="3.85"/>
</g></g><g transform="matrix(.35 0 0 .35 840 840)"><g stroke-width="3.85">
<rect width="100" height="100" stroke-width="3.85"/>
</g></g><g transform="matrix(.35 0 0 .35 875 840)"><g stroke-width="3.85">
<rect width="100" height="100" stroke-width="3.85"/>
</g></g><g transform="matrix(.35 0 0 .35 980 840)"><g stroke-width="3.85">
<rect width="100" height="100" stroke-width="3.85"/>
</g></g><g transform="matrix(.35 0 0 .35 280 875)"><g stroke-width="3.85">
<rect width="100" height="100" stroke-width="3.85"/>
</g></g><g transform="matrix(.35 0 0 .35 420 875)"><g stroke-width="3.85">
<rect width="100" height="100" stroke-width="3.85"/>
</g></g><g transform="matrix(.35 0 0 .35 455 875)"><g stroke-width="3.85">
<rect width="100" height="100" stroke-width="3.85"/>
</g></g><g transform="matrix(.35 0 0 .35 490 875)"><g stroke-width="3.85">
<rect width="100" height="100" stroke-width="3.85"/>
</g></g><g transform="matrix(.35 0 0 .35 525 875)"><g stroke-width="3.85">
<rect width="100" height="100" stroke-width="3.85"/>
</g></g><g transform="matrix(.35 0 0 .35 560 875)"><g stroke-width="3.85">
<rect width="100" height="100" stroke-width="3.85"/>
</g></g><g transform="matrix(.35 0 0 .35 630 875)"><g stroke-width="3.85">
<rect width="100" height="100" stroke-width="3.85"/>
</g></g><g transform="matrix(.35 0 0 .35 665 875)"><g stroke-width="3.85">
<rect width="100" height="100" stroke-width="3.85"/>
</g></g><g transform="matrix(.35 0 0 .35 980 875)"><g stroke-width="3.85">
<rect width="100" height="100" stroke-width="3.85"/>
</g></g><g transform="matrix(.35 0 0 .35 385 910)"><g stroke-width="3.85">
<rect width="100" height="100" stroke-width="3.85"/>
</g></g><g transform="matrix(.35 0 0 .35 420 910)"><g stroke-width="3.85">
<rect width="100" height="100" stroke-width="3.85"/>
</g></g><g transform="matrix(.35 0 0 .35 455 910)"><g stroke-width="3.85">
<rect width="100" height="100" stroke-width="3.85"/>
</g></g><g transform="matrix(.35 0 0 .35 490 910)"><g stroke-width="3.85">
<rect width="100" height="100" stroke-width="3.85"/>
</g></g><g transform="matrix(.35 0 0 .35 525 910)"><g stroke-width="3.85">
<rect width="100" height="100" stroke-width="3.85"/>
</g></g><g transform="matrix(.35 0 0 .35 560 910)"><g stroke-width="3.85">
<rect width="100" height="100" stroke-width="3.85"/>
</g></g><g transform="matrix(.35 0 0 .35 735 910)"><g stroke-width="3.85">
<rect width="100" height="100" stroke-width="3.85"/>
</g></g><g transform="matrix(.35 0 0 .35 805 910)"><g stroke-width="3.85">
<rect width="100" height="100" stroke-width="3.85"/>
</g></g><g transform="matrix(.35 0 0 .35 840 910)"><g stroke-width="3.85">
<rect width="100" height="100" stroke-width="3.85"/>
</g></g><g transform="matrix(.35 0 0 .35 910 910)"><g stroke-width="3.85">
<rect width="100" height="100" stroke-width="3.85"/>
</g></g><g transform="matrix(.35 0 0 .35 945 910)"><g stroke-width="3.85">
<rect width="100" height="100" stroke-width="3.85"/>
</g></g><g transform="matrix(.35 0 0 .35 980 910)"><g stroke-width="3.85">
<rect width="100" height="100" stroke-width="3.85"/>
</g></g><g transform="matrix(.35 0 0 .35 315 945)"><g stroke-width="3.85">
<rect width="100" height="100" stroke-width="3.85"/>
</g></g><g transform="matrix(.35 0 0 .35 350 945)"><g stroke-width="3.85">
<rect width="100" height="100" stroke-width="3.85"/>
</g></g><g transform="matrix(.35 0 0 .35 420 945)"><g stroke-width="3.85">
<rect width="100" height="100" stroke-width="3.85"/>
</g></g><g transform="matrix(.35 0 0 .35 455 945)"><g stroke-width="3.85">
<rect width="100" height="100" stroke-width="3.85"/>
</g></g><g transform="matrix(.35 0 0 .35 490 945)"><g stroke-width="3.85">
<rect width="100" height="100" stroke-width="3.85"/>
</g></g><g transform="matrix(.35 0 0 .35 735 945)"><g stroke-width="3.85">
<rect width="100" height="100" stroke-width="3.85"/>
</g></g><g transform="matrix(.35 0 0 .35 805 945)"><g stroke-width="3.85">
<rect width="100" height="100" stroke-width="3.85"/>
</g></g><g transform="matrix(.35 0 0 .35 840 945)"><g stroke-width="3.85">
<rect width="100" height="100" stroke-width="3.85"/>
</g></g><g transform="matrix(.35 0 0 .35 875 945)"><g stroke-width="3.85">
<rect width="100" height="100" stroke-width="3.85"/>
</g></g><g transform="matrix(.35 0 0 .35 910 945)"><g stroke-width="3.85">
<rect width="100" height="100" stroke-width="3.85"/>
</g></g><g transform="matrix(.35 0 0 .35 980 945)"><g stroke-width="3.85">
<rect width="100" height="100" stroke-width="3.85"/>
</g></g><g transform="matrix(.35 0 0 .35 280 980)"><g stroke-width="3.85">
<rect width="100" height="100" stroke-width="3.85"/>
</g></g><g transform="matrix(.35 0 0 .35 315 980)"><g stroke-width="3.85">
<rect width="100" height="100" stroke-width="3.85"/>
</g></g><g transform="matrix(.35 0 0 .35 350 980)"><g stroke-width="3.85">
<rect width="100" height="100" stroke-width="3.85"/>
</g></g><g transform="matrix(.35 0 0 .35 385 980)"><g stroke-width="3.85">
<rect width="100" height="100" stroke-width="3.85"/>
</g></g><g transform="matrix(.35 0 0 .35 525 980)"><g stroke-width="3.85">
<rect width="100" height="100" stroke-width="3.85"/>
</g></g><g transform="matrix(.35 0 0 .35 560 980)"><g stroke-width="3.85">
<rect width="100" height="100" stroke-width="3.85"/>
</g></g><g transform="matrix(.35 0 0 .35 665 980)"><g stroke-width="3.85">
<rect width="100" height="100" stroke-width="3.85"/>
</g></g><g transform="matrix(.35 0 0 .35 700 980)"><g stroke-width="3.85">
<rect width="100" height="100" stroke-width="3.85"/>
</g></g><g transform="matrix(.35 0 0 .35 840 980)"><g stroke-width="3.85">
<rect width="100" height="100" stroke-width="3.85"/>
</g></g><g transform="scale(2.45)"><g stroke-width="3.85">
<g stroke-width="3.85">
	<rect x="15" y="15" width="70" height="70" fill="none"/>
	<path d="m85 0h-85v100h100v-100zm0 85h-70v-70h70z"/>
</g>
</g></g><g transform="matrix(2.45,0,0,2.45,770,0)"><g stroke-width="3.85">
<g stroke-width="3.85">
	<rect x="15" y="15" width="70" height="70" fill="none"/>
	<path d="m85 0h-85v100h100v-100zm0 85h-70v-70h70z"/>
</g>
</g></g><g transform="matrix(2.45,0,0,2.45,0,770)"><g stroke-width="3.85">
<g stroke-width="3.85">
	<rect x="15" y="15" width="70" height="70" fill="none"/>
	<path d="m85 0h-85v100h100v-100zm0 85h-70v-70h70z"/>
</g>
</g></g><g transform="matrix(1.05,0,0,1.05,70,70)"><g stroke-width="3.85">
<rect width="100" height="100" stroke-width="3.85"/>
</g></g><g transform="matrix(1.05,0,0,1.05,840,70)"><g stroke-width="3.85">
<rect width="100" height="100" stroke-width="3.85"/>
</g></g><g transform="matrix(1.05,0,0,1.05,70,840)"><g stroke-width="3.85">
<rect width="100" height="100" stroke-width="3.85"/>
</g></g></g></svg>
